<svg width="177" height="165" viewBox="0 0 177 165" fill="none" xmlns="http://www.w3.org/2000/svg">
<path d="M115.253 33.772C116.187 35.1489 117.505 36.236 119.052 36.8883C120.08 37.3231 121.211 37.5612 122.405 37.5612C123.308 37.5612 124.159 37.4266 124.969 37.1781C125.778 36.9297 126.536 36.557 127.221 36.1014C128.602 35.1696 129.692 33.8548 130.346 32.3122C130.782 31.2872 131.02 30.1587 131.02 28.9681C131.02 28.0674 130.885 27.2184 130.636 26.4109C130.387 25.6033 130.014 24.8476 129.557 24.1642C128.623 22.7873 127.304 21.7002 125.758 21.048C124.73 20.6131 123.598 20.375 122.405 20.375C121.502 20.375 120.65 20.5096 119.841 20.7581C119.031 21.0065 118.273 21.3793 117.588 21.8348C116.208 22.7666 115.118 24.0814 114.464 25.624C114.028 26.649 113.789 27.7775 113.789 28.9681C113.789 29.8688 113.924 30.7178 114.173 31.5253C114.422 32.3225 114.796 33.0783 115.253 33.772Z" fill="#26F1E4"/>
<path d="M79.1911 44.9019C75.8382 44.9019 72.6826 46.2064 70.3055 48.5669C67.9284 50.9377 66.6309 54.0747 66.6309 57.4292C66.6309 60.7732 67.9388 63.9206 70.3055 66.2915C72.6826 68.6623 75.8278 69.9565 79.1911 69.9565C82.5543 69.9565 85.6995 68.652 88.0766 66.2915C90.4537 63.9206 91.7513 60.7836 91.7513 57.4292C91.7513 54.0851 90.4433 50.9377 88.0766 48.5669C85.6995 46.2064 82.5439 44.9019 79.1911 44.9019Z" fill="#26F1E4"/>
<path d="M102.578 57.4289C102.578 50.4095 106.242 44.2493 111.775 40.7396C110.062 39.197 108.682 37.292 107.768 35.1386C106.959 33.2439 106.523 31.1526 106.523 28.9681C106.523 27.3323 106.772 25.7483 107.239 24.2574C107.706 22.7666 108.381 21.3689 109.242 20.1058C110.955 17.5796 113.374 15.5711 116.228 14.3702C118.128 13.5626 120.225 13.1278 122.415 13.1278C122.55 13.1278 122.695 13.1278 122.83 13.1381C113.644 4.95916 101.551 0 88.2845 0C59.6244 0 36.3828 23.1807 36.3828 51.7657C36.3828 64.4069 40.9294 75.9817 48.4655 84.9786V50.4095V47.2V46.1336C47.0642 46.2889 45.5279 46.4235 43.9501 46.4856V46.4442V46.2578V46.2268V39.1349C45.5279 39.0728 47.0538 38.9382 48.4655 38.7829C52.6488 38.317 55.7317 37.613 55.7317 37.613V44.9637V92.0912C64.6381 99.2452 75.9526 103.531 88.2845 103.531C109.907 103.531 128.446 90.3415 136.242 71.5816C132.671 75.0603 127.782 77.2034 122.405 77.2034C111.453 77.2034 102.578 68.3515 102.578 57.4289ZM79.1913 77.2034C68.24 77.2034 59.3649 68.3515 59.3649 57.4289C59.3649 46.5063 68.24 37.6544 79.1913 37.6544C90.1425 37.6544 99.0177 46.5063 99.0177 57.4289C99.0177 68.3515 90.1425 77.2034 79.1913 77.2034Z" fill="#26F1E4"/>
<path d="M133.034 40.7396C136.024 42.6342 138.463 45.3054 140.082 48.4734C139.781 43.6385 138.806 38.9796 137.259 34.5898C136.823 35.739 136.252 36.8261 135.577 37.8304C134.851 38.8968 134 39.8699 133.034 40.7396Z" fill="#26F1E4"/>
<path d="M122.404 44.9019C119.051 44.9019 115.895 46.2064 113.518 48.5669C111.141 50.9377 109.844 54.0747 109.844 57.4292C109.844 60.7732 111.152 63.9206 113.518 66.2915C115.895 68.6623 119.041 69.9565 122.404 69.9565C125.767 69.9565 128.912 68.652 131.289 66.2915C133.667 63.9206 134.964 60.7836 134.964 57.4292C134.964 54.0851 133.656 50.9377 131.289 48.5669C128.912 46.2064 125.757 44.9019 122.404 44.9019Z" fill="#26F1E4"/>
<path d="M23.0858 123.099C21.9129 121.153 18.6846 119.299 14.9684 119.299C10.1727 119.299 7.87867 121.298 7.87867 123.834C7.87867 126.806 11.3976 127.634 15.5082 128.12C22.6499 129 29.2933 130.854 29.2933 138.991C29.2933 146.601 22.5461 149.862 14.9165 149.862C7.92019 149.862 2.54318 147.719 0 141.476L5.37701 138.701C6.89254 142.459 10.8578 144.116 15.01 144.116C19.0687 144.116 22.8782 142.698 22.8782 138.991C22.8782 135.771 19.5046 134.457 14.9581 133.97C7.96171 133.142 1.51553 131.288 1.51553 123.627C1.51553 116.608 8.45997 113.73 14.7608 113.678C20.0859 113.678 25.6186 115.189 28.2034 120.459L23.0858 123.099Z" fill="black"/>
<path d="M39.8078 114.858V128.224C41.9565 125.449 44.6035 124.611 47.3335 124.611C54.1742 124.611 57.2052 129.238 57.2052 136.31V148.992H51.2365V136.361C51.2365 131.972 48.9425 130.118 45.7557 130.118C42.2368 130.118 39.787 133.09 39.787 136.703V148.992H33.8184V114.858H39.8078Z" fill="black"/>
<path d="M81.3607 124.952H87.0803V148.992H81.4542L81.1635 145.482C79.7933 148.308 76.0253 149.675 73.3368 149.727C66.1951 149.779 60.9219 145.389 60.9219 136.951C60.9219 128.658 66.4442 124.32 73.4821 124.372C76.7104 124.372 79.7933 125.884 81.1531 128.275L81.3607 124.952ZM66.8906 136.941C66.8906 141.527 70.0669 144.25 74.0322 144.25C83.416 144.25 83.416 129.673 74.0322 129.673C70.0669 129.673 66.8906 132.354 66.8906 136.941Z" fill="black"/>
<path d="M97.6483 124.952L98.0843 127.727C99.9424 124.755 102.434 124.31 104.883 124.31C107.375 124.31 109.773 125.283 111.091 126.598L108.402 131.764C107.177 130.739 106.056 130.201 104.105 130.201C100.98 130.201 98.0947 131.858 98.0947 136.299V148.982H92.126V124.942H97.6483V124.952Z" fill="black"/>
<path d="M119.841 118.171C119.841 122.799 112.803 122.799 112.803 118.171C112.803 113.543 119.841 113.533 119.841 118.171ZM113.343 124.849V148.982H119.311V124.849H113.343Z" fill="black"/>
<path d="M142.428 148.992V136.413C142.428 132.758 140.425 129.973 136.615 129.973C132.951 129.973 130.46 133.048 130.46 136.703V148.992H124.543V124.9H129.868L130.263 128.172C132.702 125.78 135.152 124.559 138.183 124.559C143.85 124.559 148.397 128.803 148.397 136.361V148.992H142.428Z" fill="black"/>
<path d="M172.448 122.509L176.85 125.822L174.161 129.238C176.019 131.34 176.704 133.721 176.704 136.361C176.704 139.333 175.583 143.526 171.618 145.337C175.625 147.336 176.601 150.214 176.601 153.289C176.601 159.925 171.514 164.015 164.528 164.015C157.542 164.015 152.311 159.77 152.311 153.289H158.227C158.227 156.405 161.113 158.455 164.539 158.455C167.964 158.455 170.653 156.602 170.653 153.289C170.653 149.976 167.528 148.464 164.539 148.464C157.013 148.464 152.321 143.878 152.321 136.372C152.321 128.866 157.802 124.186 164.539 124.186C166.449 124.186 168.4 124.434 170.061 125.553L172.448 122.509ZM158.217 136.361C158.217 140.554 161.051 143.039 164.528 143.039C167.954 143.039 170.788 140.503 170.788 136.361C170.788 132.22 167.954 129.58 164.528 129.58C161.061 129.58 158.217 132.168 158.217 136.361Z" fill="black"/>
</svg>
