<svg width="208" height="61" viewBox="0 0 208 61" fill="none" xmlns="http://www.w3.org/2000/svg">
<path d="M46.3016 19.8983C46.8501 20.7096 47.624 21.3501 48.532 21.7344C49.1353 21.9906 49.7996 22.1309 50.5004 22.1309C51.0306 22.1309 51.5303 22.0516 52.0056 21.9052C52.4809 21.7588 52.9258 21.5392 53.328 21.2708C54.1385 20.7218 54.7784 19.9471 55.1623 19.0382C55.4182 18.4343 55.5584 17.7694 55.5584 17.0679C55.5584 16.5372 55.4792 16.037 55.3329 15.5612C55.1867 15.0854 54.9673 14.6401 54.6992 14.2375C54.1507 13.4262 53.3768 12.7857 52.4688 12.4014C51.8654 12.1452 51.2012 12.0049 50.5004 12.0049C49.9702 12.0049 49.4705 12.0842 48.9952 12.2306C48.5198 12.377 48.075 12.5966 47.6728 12.865C46.8623 13.414 46.2224 14.1887 45.8385 15.0976C45.5825 15.7015 45.4424 16.3664 45.4424 17.0679C45.4424 17.5986 45.5216 18.0988 45.6679 18.5746C45.8141 19.0443 46.0335 19.4896 46.3016 19.8983Z" fill="#26F1E4"/>
<path d="M25.1315 26.4558C23.1632 26.4558 21.3106 27.2244 19.9151 28.6152C18.5196 30.0121 17.7578 31.8604 17.7578 33.8368C17.7578 35.8071 18.5257 37.6615 19.9151 39.0584C21.3106 40.4553 23.1571 41.2178 25.1315 41.2178C27.106 41.2178 28.9525 40.4492 30.348 39.0584C31.7435 37.6615 32.5053 35.8132 32.5053 33.8368C32.5053 31.8665 31.7374 30.0121 30.348 28.6152C28.9525 27.2244 27.0999 26.4558 25.1315 26.4558Z" fill="#26F1E4"/>
<path d="M38.8614 33.8367C38.8614 29.7009 41.0125 26.0714 44.2606 24.0035C43.2551 23.0946 42.4446 21.9722 41.9084 20.7034C41.433 19.5871 41.1771 18.3549 41.1771 17.0678C41.1771 16.104 41.3233 15.1707 41.5976 14.2923C41.8718 13.4139 42.2679 12.5904 42.7737 11.8462C43.7792 10.3578 45.1991 9.1744 46.875 8.4668C47.9902 7.991 49.2211 7.7348 50.507 7.7348C50.5862 7.7348 50.6715 7.7348 50.7507 7.7409C45.3637 2.9219 38.2581 0 30.4699 0C13.6444 0 0 13.6579 0 30.5C0 37.9481 2.66917 44.7679 7.0934 50.0688V29.7009V27.8099V27.1816C6.27071 27.2731 5.3688 27.3524 4.44252 27.389V27.3646V27.2548V27.2365V23.058C5.3688 23.0214 6.26462 22.9421 7.0934 22.8506C9.54928 22.5761 11.3592 22.1613 11.3592 22.1613V26.4923V54.2595C16.5878 58.4746 23.2364 61 30.4699 61C43.1637 61 54.0476 53.2286 58.6242 42.1754C56.5278 44.225 53.6576 45.4877 50.5009 45.4877C44.0717 45.4877 38.8614 40.2722 38.8614 33.8367ZM25.1316 45.4877C18.7024 45.4877 13.4921 40.2722 13.4921 33.8367C13.4921 27.4012 18.7024 22.1857 25.1316 22.1857C31.5608 22.1857 36.7711 27.4012 36.7711 33.8367C36.7711 40.2722 31.5608 45.4877 25.1316 45.4877Z" fill="#26F1E4"/>
<path d="M56.7412 24.0036C58.4963 25.1199 59.9284 26.6937 60.879 28.5603C60.7023 25.7116 60.1295 22.9666 59.2215 20.3801C58.9655 21.0572 58.6303 21.6977 58.2342 22.2894C57.8077 22.9178 57.308 23.4912 56.7412 24.0036Z" fill="#26F1E4"/>
<path d="M50.5007 26.4558C48.5323 26.4558 46.6797 27.2244 45.2842 28.6152C43.8887 30.0121 43.127 31.8604 43.127 33.8368C43.127 35.8071 43.8948 37.6615 45.2842 39.0584C46.6797 40.4553 48.5262 41.2178 50.5007 41.2178C52.4751 41.2178 54.3216 40.4492 55.7171 39.0584C57.1127 37.6615 57.8744 35.8132 57.8744 33.8368C57.8744 31.8665 57.1066 30.0121 55.7171 28.6152C54.3216 27.2244 52.469 26.4558 50.5007 26.4558Z" fill="#26F1E4"/>
<path d="M87.924 25.5407C87.016 24.0279 84.5236 22.5883 81.6533 22.5883C77.9482 22.5883 76.1748 24.1377 76.1748 26.108C76.1748 28.4138 78.8927 29.0604 82.0677 29.4386C87.5828 30.1218 92.72 31.5553 92.72 37.8749C92.72 43.7736 87.5035 46.3112 81.6106 46.3112C76.2053 46.3112 72.0492 44.6459 70.0869 39.8086L74.243 37.6553C75.4131 40.565 78.4722 41.8521 81.6838 41.8521C84.8222 41.8521 87.7656 40.7541 87.7656 37.881C87.7656 35.3861 85.1574 34.3613 81.6472 33.9831C76.2418 33.3426 71.257 31.903 71.257 25.9677C71.257 20.5204 76.6197 18.2878 81.4949 18.2512C85.6144 18.2512 89.8802 19.4224 91.8851 23.5094L87.924 25.5407Z" fill="white"/>
<path d="M100.849 19.1477V29.5116C102.513 27.3583 104.554 26.7117 106.669 26.7117C111.958 26.7117 114.298 30.3046 114.298 35.7885V45.6217H109.691V35.8312C109.691 32.4274 107.918 30.9878 105.462 30.9878C102.744 30.9878 100.855 33.2936 100.855 36.0935V45.6217H96.248V19.1477H100.849Z" fill="white"/>
<path d="M132.965 26.9803H137.383V45.628H133.038L132.812 42.9074C131.752 45.1034 128.845 46.1587 126.767 46.1953C121.252 46.2319 117.169 42.8281 117.169 36.2889C117.169 29.8595 121.441 26.4923 126.877 26.5289C129.369 26.5289 131.752 27.7001 132.806 29.5545L132.965 26.9803ZM121.776 36.2828C121.776 39.8391 124.232 41.9558 127.291 41.9558C134.543 41.9558 134.543 30.6464 127.291 30.6464C124.232 30.6464 121.776 32.7265 121.776 36.2828Z" fill="white"/>
<path d="M145.542 26.9804L145.884 29.1337C147.322 26.8279 149.248 26.4863 151.137 26.4863C153.062 26.4863 154.915 27.2427 155.933 28.2614L153.855 32.2691C152.91 31.4761 152.039 31.0613 150.527 31.0613C148.108 31.0613 145.878 32.3484 145.878 35.7888V45.622H141.271V26.9804H145.542Z" fill="white"/>
<path d="M163.947 21.722C163.947 25.3149 158.505 25.3149 158.505 21.722C158.505 18.1291 163.947 18.1291 163.947 21.722ZM158.919 26.9009V45.6218H163.526V26.9009H158.919Z" fill="white"/>
<path d="M181.4 45.6219V35.868C181.4 33.0315 179.852 30.8782 176.902 30.8782C174.068 30.8782 172.143 33.2633 172.143 36.0998V45.628H167.572V26.9437H171.692L171.996 29.4752C173.886 27.6208 175.775 26.6753 178.115 26.6753C182.496 26.6753 186.013 29.9632 186.013 35.8253V45.6219H181.4Z" fill="white"/>
<path d="M204.599 25.0894L208 27.6636L205.922 30.311C207.36 31.9397 207.884 33.788 207.884 35.8315C207.884 38.1373 207.013 41.3886 203.954 42.7916C207.049 44.341 207.805 46.5736 207.805 48.9587C207.805 54.101 203.874 57.2791 198.475 57.2791C193.076 57.2791 189.029 53.9912 189.029 48.9587H193.6C193.6 51.3804 195.83 52.9664 198.475 52.9664C201.12 52.9664 203.198 51.5268 203.198 48.9587C203.198 46.3906 200.779 45.2133 198.475 45.2133C192.655 45.2133 189.029 41.657 189.029 35.8315C189.029 30.006 193.259 26.3765 198.475 26.3765C199.95 26.3765 201.461 26.5656 202.747 27.4379L204.599 25.0894ZM193.606 35.8315C193.606 39.0828 195.8 41.0104 198.481 41.0104C201.126 41.0104 203.32 39.0462 203.32 35.8315C203.32 32.6168 201.126 30.5733 198.481 30.5733C195.794 30.5733 193.606 32.5741 193.606 35.8315Z" fill="white"/>
</svg>
