<svg width="24" height="24" viewBox="0 0 24 24" fill="none" xmlns="http://www.w3.org/2000/svg">
<path d="M7.58892 20.6376C15.8222 20.6376 20.3255 13.8164 20.3255 7.90101C20.3255 7.70726 20.3255 7.51439 20.3124 7.32239C21.1885 6.68871 21.9447 5.9041 22.5457 5.0053C21.7287 5.36731 20.8621 5.60471 19.9747 5.70959C20.9091 5.15015 21.6085 4.27026 21.9427 3.23366C21.064 3.75508 20.1026 4.12254 19.1002 4.32021C18.4253 3.60255 17.5327 3.12733 16.5604 2.9681C15.5882 2.80887 14.5906 2.97449 13.7221 3.43934C12.8535 3.9042 12.1623 4.64236 11.7555 5.53961C11.3487 6.43686 11.2489 7.44317 11.4717 8.40282C9.69198 8.3136 7.95092 7.85111 6.36155 7.04538C4.77218 6.23964 3.37001 5.10867 2.24608 3.72588C1.67366 4.71133 1.49833 5.8779 1.75581 6.98808C2.01329 8.09826 2.68421 9.06856 3.63198 9.70144C2.9196 9.68033 2.22276 9.48816 1.60027 9.14115C1.60027 9.15948 1.60027 9.17868 1.60027 9.19788C1.60055 10.2314 1.95831 11.233 2.61288 12.0328C3.26744 12.8325 4.1785 13.3813 5.19154 13.586C4.53252 13.7657 3.84106 13.792 3.1703 13.6628C3.45635 14.5522 4.01324 15.33 4.76309 15.8874C5.51294 16.4448 6.41826 16.7539 7.35241 16.7714C5.76731 18.0172 3.80919 18.6934 1.79314 18.6914C1.43698 18.6907 1.08117 18.6692 0.727539 18.6268C2.77464 19.9405 5.15655 20.6373 7.58892 20.6341" fill="white"/>
</svg>
