<svg enable-background="new 0 0 841.9 595.3" viewBox="0 0 841.9 595.3" xmlns="http://www.w3.org/2000/svg"><path d="m268.5 178.3h330v220.3h-330z" fill="#e6e6e6" stroke="#dcdddd" stroke-miterlimit="10"/><path d="m268.5 398.7h330v-220.4z" fill="#e6e6e6" stroke="#dcdddd" stroke-miterlimit="10"/><g fill="#9fa0a0"><path d="m374.5 301.2-8.5-13.2v13.2h-4.2v-21.5h3.7l8.5 13.2v-13.2h4.2v21.5z"/><path d="m397.8 299c-1.5 1.5-3.4 2.4-5.8 2.4s-4.3-.8-5.8-2.4c-2.2-2.2-2.1-4.9-2.1-8.6s-.1-6.4 2.1-8.6c1.5-1.5 3.4-2.4 5.8-2.4s4.3.8 5.8 2.4c2.2 2.2 2.1 4.9 2.1 8.6s.1 6.4-2.1 8.6zm-3.1-14.6c-.6-.7-1.5-1.1-2.7-1.1s-2.1.5-2.7 1.1c-.8.9-1 1.9-1 6s.2 5.1 1 6c.6.7 1.6 1.1 2.7 1.1s2.1-.5 2.7-1.1c.8-.9 1.1-1.9 1.1-6s-.3-5.1-1.1-6z"/><path d="m414.3 301.2v-21.5h4.2v21.5z"/><path d="m440.3 301.2v-12.5l-4.1 8.2h-2.8l-4.1-8.2v12.5h-4.3v-21.5h4.1l5.6 11.6 5.6-11.6h4.1v21.5z"/><path d="m463.2 301.2-1.3-3.8h-7.6l-1.3 3.8h-4.4l7.8-21.5h3.3l7.8 21.5zm-5-15.2-2.7 7.8h5.3z"/><path d="m485 298.9c-1.7 1.8-3.8 2.4-6.1 2.4-2.4 0-4.3-.8-5.8-2.4-2.2-2.2-2.1-4.9-2.1-8.6s-.1-6.4 2.1-8.6c1.5-1.5 3.4-2.4 5.8-2.4 5 0 7.5 3.3 8.1 6.9h-4.2c-.5-2-1.7-3.1-3.9-3.1-1.1 0-2.1.5-2.7 1.1-.8.9-1 1.9-1 6s.2 5.2 1 6.1c.6.7 1.5 1.1 2.7 1.1 1.3 0 2.3-.5 3-1.2.7-.8 1-1.8 1-2.9v-.8h-4v-3.5h8.1v3.1c.1 3.4-.5 5.2-2 6.8z"/><path d="m492.8 301.2v-21.5h14.2v3.7h-10v5h8.5v3.7h-8.5v5.2h10v3.7h-14.2z"/></g></svg>