<svg fill="none" height="17" viewBox="0 0 14 17" width="14" xmlns="http://www.w3.org/2000/svg">
    <path d="m12.25 5.66667h-.875v-1.61905c0-2.23429-1.96-4.04762-4.375-4.04762s-4.375 1.81333-4.375 4.04762v1.61905h-.875c-.966875 0-1.75.72452-1.75 1.61904v8.09529c0 .8945.783125 1.619 1.75 1.619h10.5c.9669 0 1.75-.7245 1.75-1.619v-8.09529c0-.89452-.7831-1.61904-1.75-1.61904zm-5.25 7.28573c-.96688 0-1.75-.7245-1.75-1.6191 0-.8945.78312-1.61901 1.75-1.61901s1.75.72451 1.75 1.61901c0 .8946-.78312 1.6191-1.75 1.6191zm2.7125-7.28573h-5.425v-1.61905c0-1.38429 1.21625-2.50952 2.7125-2.50952s2.7125 1.12523 2.7125 2.50952z"
          fill="currentColor"/>
</svg>
