<?xml version="1.0" encoding="UTF-8"?>
<svg xmlns="http://www.w3.org/2000/svg" width="43pt" height="41pt" viewBox="0 0 43 41" version="1.1">
<g id="surface1">
<path style=" stroke:none;fill-rule:nonzero;fill:rgb(14.901961%,94.509804%,89.411765%);fill-opacity:1;" d="M 28 8.390625 C 28.226562 8.734375 28.546875 9.003906 28.921875 9.167969 C 29.171875 9.273438 29.445312 9.332031 29.738281 9.332031 C 29.957031 9.332031 30.164062 9.300781 30.359375 9.238281 C 30.554688 9.175781 30.742188 9.082031 30.90625 8.96875 C 31.242188 8.738281 31.507812 8.414062 31.664062 8.027344 C 31.773438 7.773438 31.828125 7.492188 31.828125 7.199219 C 31.828125 6.972656 31.796875 6.761719 31.738281 6.5625 C 31.675781 6.363281 31.585938 6.175781 31.472656 6.003906 C 31.246094 5.664062 30.925781 5.390625 30.550781 5.230469 C 30.300781 5.121094 30.027344 5.0625 29.738281 5.0625 C 29.515625 5.0625 29.308594 5.097656 29.113281 5.15625 C 28.917969 5.21875 28.734375 5.3125 28.566406 5.425781 C 28.230469 5.65625 27.964844 5.984375 27.808594 6.367188 C 27.703125 6.621094 27.644531 6.902344 27.644531 7.199219 C 27.644531 7.421875 27.675781 7.632812 27.738281 7.832031 C 27.796875 8.03125 27.886719 8.21875 28 8.390625 Z M 28 8.390625 "/>
<path style=" stroke:none;fill-rule:nonzero;fill:rgb(14.901961%,94.509804%,89.411765%);fill-opacity:1;" d="M 19.238281 11.15625 C 18.425781 11.15625 17.65625 11.480469 17.078125 12.066406 C 16.503906 12.65625 16.1875 13.4375 16.1875 14.269531 C 16.1875 15.101562 16.503906 15.882812 17.078125 16.472656 C 17.65625 17.0625 18.421875 17.382812 19.238281 17.382812 C 20.054688 17.382812 20.820312 17.058594 21.398438 16.472656 C 21.976562 15.882812 22.289062 15.105469 22.289062 14.269531 C 22.289062 13.4375 21.972656 12.65625 21.398438 12.066406 C 20.820312 11.480469 20.054688 11.15625 19.238281 11.15625 Z M 19.238281 11.15625 "/>
<path style=" stroke:none;fill-rule:nonzero;fill:rgb(14.901961%,94.509804%,89.411765%);fill-opacity:1;" d="M 24.921875 14.269531 C 24.921875 12.527344 25.808594 10.996094 27.15625 10.125 C 26.738281 9.738281 26.402344 9.265625 26.179688 8.730469 C 25.984375 8.261719 25.878906 7.742188 25.878906 7.199219 C 25.878906 6.792969 25.9375 6.398438 26.050781 6.027344 C 26.164062 5.65625 26.328125 5.308594 26.539062 4.996094 C 26.957031 4.367188 27.542969 3.871094 28.234375 3.570312 C 28.699219 3.371094 29.207031 3.261719 29.738281 3.261719 C 29.773438 3.261719 29.808594 3.261719 29.839844 3.265625 C 27.609375 1.230469 24.671875 0 21.449219 0 C 14.484375 0 8.839844 5.761719 8.839844 12.863281 C 8.839844 16.003906 9.941406 18.878906 11.773438 21.117188 L 11.773438 11.464844 C 11.433594 11.503906 11.058594 11.535156 10.675781 11.550781 L 10.675781 9.722656 C 11.058594 9.710938 11.429688 9.675781 11.773438 9.636719 C 12.789062 9.519531 13.539062 9.347656 13.539062 9.347656 L 13.539062 22.882812 C 15.703125 24.660156 18.453125 25.726562 21.449219 25.726562 C 26.699219 25.726562 31.203125 22.449219 33.097656 17.785156 C 32.230469 18.652344 31.042969 19.183594 29.738281 19.183594 C 27.074219 19.183594 24.921875 16.984375 24.921875 14.269531 Z M 19.238281 19.183594 C 16.578125 19.183594 14.421875 16.984375 14.421875 14.269531 C 14.421875 11.554688 16.578125 9.355469 19.238281 9.355469 C 21.898438 9.355469 24.054688 11.554688 24.054688 14.269531 C 24.054688 16.984375 21.898438 19.183594 19.238281 19.183594 Z M 19.238281 19.183594 "/>
<path style=" stroke:none;fill-rule:nonzero;fill:rgb(14.901961%,94.509804%,89.411765%);fill-opacity:1;" d="M 32.320312 10.125 C 33.046875 10.59375 33.636719 11.257812 34.03125 12.042969 C 33.957031 10.84375 33.722656 9.6875 33.34375 8.59375 C 33.238281 8.878906 33.101562 9.152344 32.9375 9.398438 C 32.761719 9.664062 32.554688 9.90625 32.320312 10.125 Z M 32.320312 10.125 "/>
<path style=" stroke:none;fill-rule:nonzero;fill:rgb(14.901961%,94.509804%,89.411765%);fill-opacity:1;" d="M 29.738281 11.15625 C 28.921875 11.15625 28.15625 11.480469 27.578125 12.066406 C 27 12.65625 26.683594 13.4375 26.683594 14.269531 C 26.683594 15.101562 27.003906 15.882812 27.578125 16.472656 C 28.15625 17.0625 28.917969 17.382812 29.738281 17.382812 C 30.554688 17.382812 31.316406 17.058594 31.894531 16.472656 C 32.472656 15.882812 32.789062 15.105469 32.789062 14.269531 C 32.789062 13.4375 32.46875 12.65625 31.894531 12.066406 C 31.316406 11.480469 30.550781 11.15625 29.738281 11.15625 Z M 29.738281 11.15625 "/>
<path style=" stroke:none;fill-rule:nonzero;fill:rgb(100%,100%,100%);fill-opacity:1;" d="M 5.609375 30.589844 C 5.324219 30.105469 4.539062 29.644531 3.636719 29.644531 C 2.472656 29.644531 1.914062 30.140625 1.914062 30.769531 C 1.914062 31.507812 2.769531 31.714844 3.765625 31.835938 C 5.503906 32.054688 7.117188 32.515625 7.117188 34.539062 C 7.117188 36.429688 5.476562 37.238281 3.625 37.238281 C 1.925781 37.238281 0.617188 36.707031 0 35.15625 L 1.304688 34.464844 C 1.675781 35.398438 2.636719 35.8125 3.648438 35.8125 C 4.632812 35.8125 5.558594 35.457031 5.558594 34.539062 C 5.558594 33.738281 4.738281 33.410156 3.632812 33.289062 C 1.933594 33.082031 0.367188 32.625 0.367188 30.71875 C 0.367188 28.976562 2.054688 28.261719 3.585938 28.246094 C 4.878906 28.246094 6.222656 28.621094 6.851562 29.933594 Z M 5.609375 30.589844 "/>
<path style=" stroke:none;fill-rule:nonzero;fill:rgb(100%,100%,100%);fill-opacity:1;" d="M 9.671875 28.539062 L 9.671875 31.863281 C 10.191406 31.171875 10.835938 30.964844 11.5 30.964844 C 13.160156 30.964844 13.898438 32.113281 13.898438 33.871094 L 13.898438 37.023438 L 12.449219 37.023438 L 12.449219 33.882812 C 12.449219 32.792969 11.890625 32.332031 11.117188 32.332031 C 10.261719 32.332031 9.664062 33.070312 9.664062 33.96875 L 9.664062 37.023438 L 8.214844 37.023438 L 8.214844 28.539062 Z M 9.671875 28.539062 "/>
<path style=" stroke:none;fill-rule:nonzero;fill:rgb(100%,100%,100%);fill-opacity:1;" d="M 19.765625 31.046875 L 21.15625 31.046875 L 21.15625 37.023438 L 19.789062 37.023438 L 19.71875 36.148438 C 19.386719 36.851562 18.46875 37.191406 17.816406 37.203125 C 16.082031 37.21875 14.800781 36.128906 14.800781 34.03125 C 14.800781 31.96875 16.140625 30.890625 17.851562 30.90625 C 18.636719 30.90625 19.386719 31.28125 19.714844 31.875 Z M 16.25 34.027344 C 16.25 35.167969 17.023438 35.84375 17.984375 35.84375 C 20.265625 35.84375 20.265625 32.222656 17.984375 32.222656 C 17.023438 32.222656 16.25 32.886719 16.25 34.027344 Z M 16.25 34.027344 "/>
<path style=" stroke:none;fill-rule:nonzero;fill:rgb(100%,100%,100%);fill-opacity:1;" d="M 23.722656 31.046875 L 23.828125 31.738281 C 24.28125 31 24.886719 30.890625 25.480469 30.890625 C 26.085938 30.890625 26.667969 31.132812 26.988281 31.457031 L 26.335938 32.742188 C 26.039062 32.488281 25.765625 32.351562 25.289062 32.351562 C 24.53125 32.351562 23.832031 32.765625 23.832031 33.867188 L 23.832031 37.019531 L 22.378906 37.019531 L 22.378906 31.046875 Z M 23.722656 31.046875 "/>
<path style=" stroke:none;fill-rule:nonzero;fill:rgb(100%,100%,100%);fill-opacity:1;" d="M 29.113281 29.363281 C 29.113281 30.515625 27.402344 30.515625 27.402344 29.363281 C 27.402344 28.214844 29.113281 28.210938 29.113281 29.363281 Z M 27.535156 31.023438 L 27.535156 37.019531 L 28.984375 37.019531 L 28.984375 31.023438 Z M 27.535156 31.023438 "/>
<path style=" stroke:none;fill-rule:nonzero;fill:rgb(100%,100%,100%);fill-opacity:1;" d="M 34.601562 37.023438 L 34.601562 33.898438 C 34.601562 32.988281 34.113281 32.296875 33.1875 32.296875 C 32.300781 32.296875 31.695312 33.058594 31.695312 33.96875 L 31.695312 37.023438 L 30.257812 37.023438 L 30.257812 31.035156 L 31.550781 31.035156 L 31.644531 31.847656 C 32.238281 31.253906 32.832031 30.949219 33.570312 30.949219 C 34.945312 30.949219 36.050781 32.003906 36.050781 33.882812 L 36.050781 37.023438 Z M 34.601562 37.023438 "/>
<path style=" stroke:none;fill-rule:nonzero;fill:rgb(100%,100%,100%);fill-opacity:1;" d="M 41.894531 30.441406 L 42.964844 31.265625 L 42.308594 32.113281 C 42.761719 32.636719 42.929688 33.226562 42.929688 33.882812 C 42.929688 34.621094 42.65625 35.664062 41.691406 36.113281 C 42.664062 36.609375 42.902344 37.324219 42.902344 38.089844 C 42.902344 39.738281 41.667969 40.753906 39.96875 40.753906 C 38.273438 40.753906 37 39.699219 37 38.089844 L 38.4375 38.089844 C 38.4375 38.863281 39.140625 39.375 39.972656 39.375 C 40.804688 39.375 41.457031 38.914062 41.457031 38.089844 C 41.457031 37.265625 40.699219 36.890625 39.972656 36.890625 C 38.144531 36.890625 37.003906 35.75 37.003906 33.886719 C 37.003906 32.019531 38.335938 30.859375 39.972656 30.859375 C 40.4375 30.859375 40.910156 30.921875 41.3125 31.199219 Z M 38.4375 33.882812 C 38.4375 34.925781 39.125 35.542969 39.96875 35.542969 C 40.800781 35.542969 41.492188 34.914062 41.492188 33.882812 C 41.492188 32.855469 40.800781 32.199219 39.96875 32.199219 C 39.128906 32.199219 38.4375 32.839844 38.4375 33.882812 Z M 38.4375 33.882812 "/>
</g>
</svg>
