<svg width="122" height="36" viewBox="0 0 122 36" fill="none" xmlns="http://www.w3.org/2000/svg">
<path d="M27.158 11.7432C27.4797 12.222 27.9337 12.6 28.4663 12.8268C28.8201 12.978 29.2097 13.0608 29.6208 13.0608C29.9317 13.0608 30.2248 13.014 30.5036 12.9276C30.7824 12.8412 31.0434 12.7116 31.2793 12.5532C31.7547 12.2292 32.13 11.772 32.3552 11.2356C32.5053 10.8792 32.5875 10.4868 32.5875 10.0728C32.5875 9.75958 32.541 9.46438 32.4552 9.18358C32.3695 8.90278 32.2408 8.63998 32.0835 8.40238C31.7618 7.92358 31.3079 7.54558 30.7753 7.31878C30.4214 7.16758 30.0318 7.08478 29.6208 7.08478C29.3098 7.08478 29.0167 7.13158 28.7379 7.21798C28.4591 7.30438 28.1982 7.43398 27.9623 7.59238C27.4869 7.91638 27.1116 8.37358 26.8864 8.90998C26.7363 9.26638 26.6541 9.65878 26.6541 10.0728C26.6541 10.386 26.7005 10.6812 26.7863 10.962C26.8721 11.2392 27.0008 11.502 27.158 11.7432Z" fill="#26F1E4"/>
<path d="M14.7407 15.6132C13.5862 15.6132 12.4996 16.0668 11.6811 16.8876C10.8626 17.712 10.4158 18.8028 10.4158 19.9692C10.4158 21.132 10.8661 22.2263 11.6811 23.0507C12.4996 23.8751 13.5827 24.3251 14.7407 24.3251C15.8988 24.3251 16.9819 23.8715 17.8004 23.0507C18.6189 22.2263 19.0657 21.1356 19.0657 19.9692C19.0657 18.8064 18.6154 17.712 17.8004 16.8876C16.9819 16.0668 15.8953 15.6132 14.7407 15.6132Z" fill="#26F1E4"/>
<path d="M22.7937 19.9692C22.7937 17.5284 24.0554 15.3864 25.9606 14.166C25.3708 13.6296 24.8954 12.9672 24.5809 12.2184C24.3021 11.5596 24.1519 10.8324 24.1519 10.0728C24.1519 9.504 24.2377 8.9532 24.3986 8.4348C24.5594 7.9164 24.7918 7.4304 25.0884 6.9912C25.6782 6.1128 26.511 5.4144 27.494 4.9968C28.1481 4.716 28.8701 4.5648 29.6243 4.5648C29.6708 4.5648 29.7208 4.5648 29.7673 4.5684C26.6075 1.7244 22.4398 0 17.8718 0C8.00299 0 0 8.0604 0 18C0 22.3956 1.56557 26.4204 4.16055 29.5488V17.5284V16.4124V16.0416C3.67802 16.0956 3.14901 16.1424 2.60571 16.164V16.1496V16.0848V16.074V13.608C3.14901 13.5864 3.67444 13.5396 4.16055 13.4856C5.60102 13.3236 6.6626 13.0788 6.6626 13.0788V15.6348V32.022C9.7294 34.5096 13.629 36 17.8718 36C25.3172 36 31.701 31.4136 34.3853 24.8904C33.1558 26.1 31.4722 26.8452 29.6207 26.8452C25.8498 26.8452 22.7937 23.7672 22.7937 19.9692ZM14.7407 26.8452C10.9697 26.8452 7.91363 23.7672 7.91363 19.9692C7.91363 16.1712 10.9697 13.0932 14.7407 13.0932C18.5116 13.0932 21.5677 16.1712 21.5677 19.9692C21.5677 23.7672 18.5116 26.8452 14.7407 26.8452Z" fill="#26F1E4"/>
<path d="M33.2808 14.1661C34.3102 14.8249 35.1501 15.7537 35.7077 16.8553C35.6041 15.1741 35.2681 13.5541 34.7355 12.0276C34.5854 12.4272 34.3888 12.8052 34.1565 13.1544C33.9063 13.5252 33.6132 13.8637 33.2808 14.1661Z" fill="#26F1E4"/>
<path d="M29.6206 15.6132C28.4661 15.6132 27.3795 16.0668 26.561 16.8876C25.7424 17.712 25.2957 18.8028 25.2957 19.9692C25.2957 21.132 25.746 22.2263 26.561 23.0507C27.3795 23.8751 28.4625 24.3251 29.6206 24.3251C30.7787 24.3251 31.8618 23.8715 32.6803 23.0507C33.4988 22.2263 33.9456 21.1356 33.9456 19.9692C33.9456 18.8064 33.4952 17.712 32.6803 16.8876C31.8618 16.0668 30.7751 15.6132 29.6206 15.6132Z" fill="#26F1E4"/>
<path d="M51.5708 15.0732C51.0382 14.1804 49.5763 13.3308 47.8928 13.3308C45.7196 13.3308 44.6794 14.2452 44.6794 15.408C44.6794 16.7688 46.2736 17.1504 48.1358 17.3736C51.3706 17.7768 54.3838 18.6228 54.3838 22.3524C54.3838 25.8336 51.3242 27.3312 47.8678 27.3312C44.6973 27.3312 42.2596 26.3484 41.1086 23.4936L43.5464 22.2228C44.2326 23.94 46.027 24.6996 47.9106 24.6996C49.7514 24.6996 51.4779 24.0516 51.4779 22.356C51.4779 20.8836 49.948 20.2788 47.8892 20.0556C44.7187 19.6776 41.7949 18.828 41.7949 15.3252C41.7949 12.1104 44.9404 10.7928 47.7998 10.7712C50.2161 10.7712 52.7182 11.4624 53.8941 13.8744L51.5708 15.0732Z" fill="white"/>
<path d="M59.152 11.3004V17.4168C60.1278 16.146 61.3252 15.7644 62.5655 15.7644C65.668 15.7644 67.0406 17.8848 67.0406 21.1212V26.9244H64.3384V21.1464C64.3384 19.1376 63.2982 18.288 61.8578 18.288C60.2636 18.288 59.1556 19.6488 59.1556 21.3012V26.9244H56.4534V11.3004H59.152Z" fill="white"/>
<path d="M77.9889 15.9228H80.5803V26.928H78.0318L77.8995 25.3224C77.2776 26.6184 75.5726 27.2412 74.3537 27.2628C71.1189 27.2844 68.7241 25.2756 68.7241 21.4164C68.7241 17.622 71.2298 15.6348 74.4181 15.6564C75.88 15.6564 77.2776 16.3476 77.8959 17.442L77.9889 15.9228ZM71.4263 21.4128C71.4263 23.5116 72.8668 24.7608 74.6611 24.7608C78.9146 24.7608 78.9146 18.0864 74.6611 18.0864C72.8668 18.0864 71.4263 19.314 71.4263 21.4128Z" fill="white"/>
<path d="M85.3663 15.9228L85.5665 17.1936C86.4101 15.8328 87.5396 15.6312 88.6476 15.6312C89.7771 15.6312 90.8637 16.0776 91.4606 16.6788L90.2418 19.044C89.6877 18.576 89.1766 18.3312 88.2902 18.3312C86.8712 18.3312 85.5629 19.0908 85.5629 21.1212V26.9244H82.8607V15.9228H85.3663Z" fill="white"/>
<path d="M96.1609 12.8195C96.1609 14.9399 92.969 14.9399 92.969 12.8195C92.969 10.6991 96.1609 10.6991 96.1609 12.8195ZM93.2121 15.8759V26.9243H95.9143V15.8759H93.2121Z" fill="white"/>
<path d="M106.398 26.9244V21.168C106.398 19.494 105.49 18.2232 103.76 18.2232C102.098 18.2232 100.968 19.6308 100.968 21.3048V26.928H98.2877V15.9012H100.704L100.883 17.3952C101.991 16.3008 103.099 15.7428 104.471 15.7428C107.041 15.7428 109.104 17.6832 109.104 21.1428V26.9244H106.398Z" fill="white"/>
<path d="M120.006 14.8068L122 16.326L120.781 17.8884C121.625 18.8496 121.932 19.9404 121.932 21.1464C121.932 22.5072 121.421 24.426 119.627 25.254C121.442 26.1684 121.886 27.486 121.886 28.8936C121.886 31.9284 119.58 33.804 116.413 33.804C113.246 33.804 110.873 31.8636 110.873 28.8936H113.554C113.554 30.3228 114.862 31.2588 116.413 31.2588C117.965 31.2588 119.183 30.4092 119.183 28.8936C119.183 27.378 117.764 26.6832 116.413 26.6832C113 26.6832 110.873 24.5844 110.873 21.1464C110.873 17.7084 113.354 15.5664 116.413 15.5664C117.278 15.5664 118.165 15.678 118.919 16.1928L120.006 14.8068ZM113.557 21.1464C113.557 23.0652 114.844 24.2028 116.417 24.2028C117.968 24.2028 119.255 23.0436 119.255 21.1464C119.255 19.2492 117.968 18.0432 116.417 18.0432C114.841 18.0432 113.557 19.224 113.557 21.1464Z" fill="white"/>
</svg>
